<mxfile host="app.diagrams.net" modified="2023-05-17T03:03:22.257Z" agent="Mozilla/5.0 (Windows NT 10.0; Win64; x64) AppleWebKit/537.36 (KHTML, like Gecko) Chrome/113.0.0.0 Safari/537.36 Edg/113.0.1774.42" version="21.3.2" etag="hdYFWxAfO50Cqp8Nk5T7" type="github">
  <diagram name="第 1 页" id="2-_89FLztILCV40nFNJ_">
    <mxGraphModel>
      <root>
        <mxCell id="0" />
        <mxCell id="1" parent="0" />
      </root>
    </mxGraphModel>
  </diagram>
</mxfile>
